# xmcd
#
# Track frame offsets: 
#        150
#        19070
#        41818
#        57015
#        84739
#        116495
#        131054
#        149213
#        166284
#        186319
#        206248
#        218969
#        240366
#        262388
#
# Disc length: 3736 seconds
#
# Revision: 6
# Processed by: cddbd v1.5.2PL0 Copyright (c) Steve Scherf et al.
# Submitted via: ExactAudioCopy v0.99pb4
#
DISCID=de0e960e
DTITLE=John Prine - Fair and Square
DYEAR=2005
DGENRE=Pop-Folk
TTITLE0=Glory of True Love
TTITLE1=Crazy as a Loon
TTITLE2=Long Monday
TTITLE3=Taking a Walk
TTITLE4=Some Humans Ain't Human
TTITLE5=My Darlin' Hometown
TTITLE6=Morning Train
TTITLE7=The Moon Is Down
TTITLE8=Clay Pigeons
TTITLE9=She Is My Everything
TTITLE10=I Hate It When That Happens to Me
TTITLE11=Bear Creek Blues
TTITLE12=Other Side of Town
TTITLE13=Safety Joe
EXTD=
EXTT0=
EXTT1=
EXTT2=
EXTT3=
EXTT4=
EXTT5=
EXTT6=
EXTT7=
EXTT8=
EXTT9=
EXTT10=
EXTT11=
EXTT12=
EXTT13=
PLAYORDER=
